<?xml version="1.0" encoding="utf-8"?>
<!-- Generator: Adobe Illustrator 25.0.1, SVG Export Plug-In . SVG Version: 6.00 Build 0)  -->
<svg version="1.1" id="Layer_1" xmlns="http://www.w3.org/2000/svg" xmlns:xlink="http://www.w3.org/1999/xlink" x="0px" y="0px"
	 viewBox="0 0 96 96" style="enable-background:new 0 0 96 96;" xml:space="preserve">
<style type="text/css">
	.st0{fill:#2C3E50;}
	.st1{fill:#E2EDF0;}
</style>
<g>
	<path class="st0" d="M79.2,2H16.8C8.7,2,2,8.6,2,16.8v62.4C2,87.4,8.7,94,16.8,94h62.4C87.4,94,94,87.4,94,79.2V16.8
		C94,8.6,87.4,2,79.2,2z M82.1,73.4c0,4.8-3.9,8.6-8.6,8.6H22.6c-4.8,0-8.6-3.9-8.6-8.6V22.6c0-4.8,3.9-8.6,8.6-8.6h50.9
		c4.8,0,8.6,3.9,8.6,8.6V73.4z"/>
	<path class="st1" d="M73.5,14H22.6c-4.8,0-8.6,3.9-8.6,8.6v50.9c0,4.8,3.9,8.6,8.6,8.6h50.9c4.8,0,8.6-3.9,8.6-8.6V22.6
		C82.1,17.8,78.2,14,73.5,14z M37.4,72.7H25.6V60.9L52,34.4l11.9,11.9L37.4,72.7z M67.7,42.5L55.8,30.6l7.4-7.4l11.9,11.9L67.7,42.5
		z"/>
	
		<rect x="60.2" y="24.5" transform="matrix(0.7071 -0.7071 0.7071 0.7071 -4.0936 55.8885)" class="st0" width="10.4" height="16.8"/>
	<polygon class="st0" points="25.6,60.9 25.6,72.7 37.4,72.7 63.9,46.3 52,34.4 	"/>
</g>
</svg>
