<?xml version="1.0" encoding="utf-8"?>
<!-- Generator: Adobe Illustrator 25.0.1, SVG Export Plug-In . SVG Version: 6.00 Build 0)  -->
<svg version="1.1" id="Layer_1" xmlns="http://www.w3.org/2000/svg" xmlns:xlink="http://www.w3.org/1999/xlink" x="0px" y="0px"
	 viewBox="0 0 96 96" style="enable-background:new 0 0 96 96;" xml:space="preserve">
<style type="text/css">
	.st0{fill:#E2EDF0;}
	.st1{fill:#6FC3DB;}
</style>
<g>
	<rect x="41.2" y="25.6" class="st0" width="13.7" height="56.4"/>
	<path class="st0" d="M14.1,73.4c0,4.7,3.8,8.6,8.6,8.6h6V25.6H14.1V73.4z"/>
	<path class="st0" d="M67.5,82h6c4.7,0,8.6-3.8,8.6-8.6V25.6H67.5V82z"/>
	<path class="st1" d="M79.2,2H16.9C8.8,2,2.1,8.7,2.1,16.8v62.3C2.1,87.3,8.8,94,16.9,94h62.3C87.4,94,94,87.3,94,79.2V16.8
		C94,8.7,87.4,2,79.2,2z M28.6,82h-6c-4.7,0-8.6-3.8-8.6-8.6V25.6h14.6V82z M54.9,82H41.2V25.6h13.7V82z M82.1,73.4
		c0,4.7-3.8,8.6-8.6,8.6h-6V25.6h14.6V73.4z"/>
</g>
</svg>
