<?xml version="1.0" encoding="utf-8"?>
<!-- Generator: Adobe Illustrator 25.0.1, SVG Export Plug-In . SVG Version: 6.00 Build 0)  -->
<svg version="1.1" id="Layer_1" xmlns="http://www.w3.org/2000/svg" xmlns:xlink="http://www.w3.org/1999/xlink" x="0px" y="0px"
	 viewBox="0 0 96 96" style="enable-background:new 0 0 96 96;" xml:space="preserve">
<style type="text/css">
	.st0{fill:none;}
	.st1{fill:#2D3F50;}
	.st2{fill:#6FC3DB;}
</style>
<g>
	<path class="st0" d="M79.8,79.2c-0.1,0.1-0.1,0.2-0.2,0.2C79.7,79.4,79.7,79.3,79.8,79.2z"/>
	<path class="st0" d="M82.1,73.4c0,0.3,0,0.6,0,0.9C82.1,74,82.1,73.7,82.1,73.4z"/>
	<path class="st0" d="M80.2,78.8C80.2,78.8,80.2,78.8,80.2,78.8C80.2,78.8,80.2,78.8,80.2,78.8z"/>
	<path class="st0" d="M14.1,73.4c0,4.8,3.8,8.6,8.6,8.6C17.9,82,14.1,78.1,14.1,73.4z"/>
	<path class="st0" d="M79.3,79.7c-0.1,0.1-0.3,0.2-0.4,0.3C79.1,79.9,79.2,79.8,79.3,79.7z"/>
	<path class="st0" d="M78.9,80.1c-1.3,1-2.8,1.7-4.5,1.8C76.1,81.8,77.6,81.1,78.9,80.1z"/>
	<rect x="41.2" y="25.6" class="st1" width="13.7" height="56.4"/>
	<path class="st1" d="M14.1,73.4c0,4.7,3.8,8.6,8.6,8.6h6V25.6H14.1V73.4z"/>
	<path class="st1" d="M67.5,82h6c0.3,0,0.6,0,0.9,0c1.7-0.2,3.2-0.8,4.5-1.8c0,0,0.1,0,0.1-0.1c0.1-0.1,0.3-0.2,0.4-0.3
		c0.1-0.1,0.2-0.1,0.2-0.2c0.1-0.1,0.1-0.2,0.2-0.2c0.1-0.1,0.2-0.3,0.4-0.4c0,0,0-0.1,0.1-0.1c1-1.3,1.7-2.8,1.8-4.5
		c0-0.3,0-0.6,0-0.9V25.6H67.5V82z"/>
	<path class="st2" d="M79.2,2H16.9C8.8,2,2.1,8.7,2.1,16.8v62.3C2.1,87.3,8.8,94,16.9,94h62.3C87.4,94,94,87.3,94,79.2V16.8
		C94,8.7,87.4,2,79.2,2z M28.7,82h-6c-4.8,0-8.6-3.8-8.6-8.6V25.6h14.6V82z M54.9,82H41.2V25.6h13.7V82z M82.1,73.4
		c0,0.3,0,0.6,0,0.9c-0.2,1.7-0.8,3.2-1.8,4.5c0,0,0,0.1-0.1,0.1c-0.1,0.1-0.2,0.3-0.4,0.4c-0.1,0.1-0.1,0.2-0.2,0.2
		c-0.1,0.1-0.2,0.1-0.2,0.2c-0.1,0.1-0.3,0.2-0.4,0.3c0,0-0.1,0-0.1,0.1c-1.3,1-2.8,1.7-4.5,1.8c-0.3,0-0.6,0-0.9,0h-6V25.6h14.6
		V73.4z"/>
</g>
</svg>
