<?xml version="1.0" encoding="utf-8"?>
<!-- Generator: Adobe Illustrator 25.0.1, SVG Export Plug-In . SVG Version: 6.00 Build 0)  -->
<svg version="1.1" id="Layer_1" xmlns="http://www.w3.org/2000/svg" xmlns:xlink="http://www.w3.org/1999/xlink" x="0px" y="0px"
	 viewBox="0 0 96 96" style="enable-background:new 0 0 96 96;" xml:space="preserve">
<path d="M63,48.4l22-22c2.7-2.7,2.7-7.1,0-9.8l-4.9-4.9c-2.7-2.7-7.1-2.7-9.8,0l-22,22l-22-22c-2.7-2.7-7.1-2.7-9.8,0l-4.9,4.9
	c-2.7,2.7-2.7,7.1,0,9.8l22,22l-22,22c-2.7,2.7-2.7,7.1,0,9.8l4.9,4.9c2.7,2.7,7.1,2.7,9.8,0l22-22l22,22c2.7,2.7,7.1,2.7,9.8,0
	l4.9-4.9c2.7-2.7,2.7-7.1,0-9.8L63,48.4z"/>
</svg>
