<?xml version="1.0" encoding="utf-8"?>
<!-- Generator: Adobe Illustrator 25.0.1, SVG Export Plug-In . SVG Version: 6.00 Build 0)  -->
<svg version="1.1" id="Layer_1" xmlns="http://www.w3.org/2000/svg" xmlns:xlink="http://www.w3.org/1999/xlink" x="0px" y="0px"
	 viewBox="0 0 96 96" style="enable-background:new 0 0 96 96;" xml:space="preserve">
<path d="M53.6,27.2V3.6H18.9c-2.3,0-4.2,1.9-4.2,4.2v80.5c0,2.3,1.9,4.2,4.2,4.2h58.3c2.3,0,4.2-1.9,4.2-4.2V31.3H57.7
	C55.4,31.3,53.6,29.5,53.6,27.2z M36.9,52.2c0,0.8-0.6,1.4-1.4,1.4h-1.4c-1.5,0-2.8,1.2-2.8,2.8v5.6c0,1.5,1.2,2.8,2.8,2.8h1.4
	c0.8,0,1.4,0.6,1.4,1.4v2.8c0,0.8-0.6,1.4-1.4,1.4h-1.4c-4.6,0-8.3-3.7-8.3-8.3v-5.6c0-4.6,3.7-8.3,8.3-8.3h1.4
	c0.8,0,1.4,0.6,1.4,1.4V52.2z M44.6,70.2h-2.1c-0.8,0-1.4-0.6-1.4-1.4V66c0-0.8,0.6-1.4,1.4-1.4h2.1c1,0,1.8-0.6,1.8-1.1
	c0-0.2-0.1-0.5-0.4-0.7l-3.8-3.3c-1.5-1.3-2.3-3-2.3-4.9c0-3.7,3.3-6.7,7.4-6.7h2.1c0.8,0,1.4,0.6,1.4,1.4v2.8
	c0,0.8-0.6,1.4-1.4,1.4h-2.1c-1,0-1.8,0.6-1.8,1.1c0,0.2,0.1,0.5,0.4,0.7l3.8,3.3c1.5,1.3,2.3,3,2.3,4.9
	C51.9,67.2,48.6,70.2,44.6,70.2L44.6,70.2z M59.1,49.4V53c0,3.5,1,7,2.8,9.9c1.8-2.9,2.8-6.3,2.8-9.9v-3.6c0-0.8,0.6-1.4,1.4-1.4
	h2.8c0.8,0,1.4,0.6,1.4,1.4V53c0,6.2-2.2,11.9-6.3,16.3c-0.5,0.6-1.3,0.9-2,0.9c-0.8,0-1.5-0.3-2-0.9c-4.1-4.4-6.3-10.2-6.3-16.3
	v-3.6c0-0.8,0.6-1.4,1.4-1.4h2.8C58.5,48,59.1,48.6,59.1,49.4z M80.1,21.8l-17-17c-0.8-0.8-1.8-1.2-2.9-1.2h-1.1v22.2h22.2v-1.1
	C81.3,23.6,80.9,22.6,80.1,21.8z"/>
</svg>
