<?xml version="1.0" encoding="utf-8"?>
<!-- Generator: Adobe Illustrator 25.0.1, SVG Export Plug-In . SVG Version: 6.00 Build 0)  -->
<svg version="1.1" id="Layer_1" xmlns="http://www.w3.org/2000/svg" xmlns:xlink="http://www.w3.org/1999/xlink" x="0px" y="0px"
	 viewBox="0 0 96 96" style="enable-background:new 0 0 96 96;" xml:space="preserve">
<path d="M54,30.9c-13.8,0-25.8,8.4-32.5,15.6L8.1,36.3c-1.9-1.4-4.6,0.1-4.2,2.2l3.7,16.8L4,72.2c-0.5,2.2,2.3,3.6,4.2,2.2
	l13.4-10.1c6.7,7.2,18.7,15.6,32.5,15.6c21,0,38.1-19.6,38.1-24.5S75,30.9,54,30.9z M67.4,59.1c-2,0-3.7-1.6-3.7-3.7
	c0-2,1.6-3.7,3.7-3.7c2,0,3.7,1.6,3.7,3.7C71,57.4,69.4,59.1,67.4,59.1z"/>
</svg>
