<?xml version="1.0" encoding="utf-8"?>
<!-- Generator: Adobe Illustrator 25.0.1, SVG Export Plug-In . SVG Version: 6.00 Build 0)  -->
<svg version="1.1" id="Layer_1" xmlns="http://www.w3.org/2000/svg" xmlns:xlink="http://www.w3.org/1999/xlink" x="0px" y="0px"
	 viewBox="0 0 96 96" style="enable-background:new 0 0 96 96;" xml:space="preserve">
<g>
	<g>
		<path d="M48,6.6C25.1,6.6,6.6,25.1,6.6,48S25.1,89.4,48,89.4S89.4,70.9,89.4,48S70.9,6.6,48,6.6z M43.2,65.9V46.9
			c0-2.6,2.1-4.8,4.8-4.8s4.8,2.1,4.8,4.8v18.9c0,2.6-2.1,4.8-4.8,4.8S43.2,68.5,43.2,65.9z M48,36.9c-3.2,0-5.7-2.6-5.7-5.7
			s2.6-5.7,5.7-5.7s5.7,2.6,5.7,5.7l0,0C53.7,34.3,51.2,36.9,48,36.9z"/>
	</g>
</g>
</svg>
