<?xml version="1.0" encoding="utf-8"?>
<!-- Generator: Adobe Illustrator 25.0.1, SVG Export Plug-In . SVG Version: 6.00 Build 0)  -->
<svg version="1.1" id="Layer_1" xmlns="http://www.w3.org/2000/svg" xmlns:xlink="http://www.w3.org/1999/xlink" x="0px" y="0px"
	 viewBox="0 0 96 96" style="enable-background:new 0 0 96 96;" xml:space="preserve">
<g transform="translate(0,-952.36218)">
	<path d="M85.9,982.6c-8-7.3-20.5-6.8-27.9,1.3c-1.3,1.5-2.5,3.1-3.3,4.8l-40.6,1.8l-11.2,9.8l9.7,8.9l10.5-0.5l5.5-6.1l6.1,5.5
		l3.5-0.2l5.5-6.1l6.1,5.5l5.8-0.3c1,1.6,2.2,3.1,3.7,4.5c8,7.3,20.5,6.8,27.9-1.3S93.9,990,85.9,982.6z M76.5,992.9
		c2.3,2.1,2.5,5.8,0.4,8.1c-2.1,2.3-5.8,2.5-8.1,0.4c-2.3-2.1-2.5-5.8-0.4-8.1S74.1,990.8,76.5,992.9z"/>
</g>
</svg>
