<?xml version="1.0" encoding="utf-8"?>
<!-- Generator: Adobe Illustrator 25.0.1, SVG Export Plug-In . SVG Version: 6.00 Build 0)  -->
<svg version="1.1" id="Layer_1" xmlns="http://www.w3.org/2000/svg" xmlns:xlink="http://www.w3.org/1999/xlink" x="0px" y="0px"
	 viewBox="0 0 96 96" style="enable-background:new 0 0 96 96;" xml:space="preserve">
<g>
	<path d="M48,7.4C24.5,7.4,5.4,26.5,5.4,50S24.5,92.6,48,92.6S90.6,73.5,90.6,50S71.5,7.4,48,7.4z M78,74.7
		c-6.3-8.4-14.1-13.8-22.6-15.8c6.2-2.8,10.4-9,10.4-16.2c0-9.9-8-17.8-17.8-17.8s-17.8,8-17.8,17.8c0,7.2,4.3,13.3,10.4,16.2
		c-8.5,2-16.3,7.4-22.6,15.7c-5.6-6.7-8.9-15.3-8.9-24.7C9.1,28.4,26.5,11,48,11s38.9,17.5,38.9,39C86.9,59.4,83.6,67.9,78,74.7z"/>
</g>
</svg>
